HIERARCHY
ROOT Hip
{
	OFFSET 0 1.131 0.0052
	CHANNELS 6 Xposition Yposition Zposition Xrotation Yrotation Zrotation
	JOINT Abdomen
	{
		OFFSET 0 -0.047353 -0.05
		CHANNELS 3 Xrotation Zrotation Yrotation
		JOINT Chest
		{
			OFFSET 0 0.132153 0.007439
			CHANNELS 3 Xrotation Zrotation Yrotation
			JOINT Neck
			{
				OFFSET 0 0.3078 0.006161
				CHANNELS 3 Xrotation Zrotation Yrotation
				JOINT Head_comp
				{
					OFFSET 0 0.0884 0.013
					CHANNELS 3 Xrotation Yrotation Zrotation
					End Site
					{
						OFFSET -0 0.156 0.0624
					}
				}
			}
			JOINT Left_Collar
			{
				OFFSET 0.02282 0.250342 0.017193
				CHANNELS 2 Yrotation Zrotation
				JOINT Left_Shoulder
				{
					OFFSET 0.15421 0 0
					CHANNELS 3 Xrotation Yrotation Zrotation
					JOINT Left_Forearm
					{
						OFFSET 0.265212 0 0
						CHANNELS 2 Yrotation Xrotation
						JOINT Left_Hand
						{
							OFFSET 0.27571 0 0
							CHANNELS 2 Zrotation Yrotation
							JOINT L1ProxPhalanx
							{
								OFFSET 0.014142 0.001733 0.014142
								CHANNELS 3 Yrotation Zrotation Xrotation
								JOINT L1MidPhalanx
								{
									OFFSET 0.04 0 0
									CHANNELS 1 Zrotation
									JOINT L1DistPhalanx
									{
										OFFSET 0.035 0 0
										CHANNELS 1 Zrotation
										End Site
										{
											OFFSET 0.029 -0 -0
										}
									}
								}
							}
							JOINT L2ProxPhalanx
							{
								OFFSET 0.0821037 0.001578 0.0219996
								CHANNELS 2 Yrotation Zrotation
								JOINT L2MidPhalanx
								{
									OFFSET 0.04 0 0
									CHANNELS 1 Zrotation
									JOINT L2DistPhalanx
									{
										OFFSET 0.028 0 0
										CHANNELS 1 Zrotation
										End Site
										{
											OFFSET 0.02 -0 -0
										}
									}
								}
							}
							JOINT L3ProxPhalanx
							{
								OFFSET 0.083 0 0
								CHANNELS 2 Yrotation Zrotation
								JOINT L3MidPhalanx
								{
									OFFSET 0.053 0 0
									CHANNELS 1 Zrotation
									JOINT L3DistPhalanx
									{
										OFFSET 0.03 0 0
										CHANNELS 1 Zrotation
										End Site
										{
											OFFSET 0.023 -0 -0
										}
									}
								}
							}
							JOINT L4ProxPhalanx
							{
								OFFSET 0.077274 -0.000761 -0.0207055
								CHANNELS 2 Yrotation Zrotation
								JOINT L4MidPhalanx
								{
									OFFSET 0.05 0 0
									CHANNELS 1 Zrotation
									JOINT L4DistPhalanx
									{
										OFFSET 0.03 0 0
										CHANNELS 1 Zrotation
										End Site
										{
											OFFSET 0.023 -0 -0
										}
									}
								}
							}
							JOINT L5ProxPhalanx
							{
								OFFSET 0.0675499 -0.001644 -0.039
								CHANNELS 2 Yrotation Zrotation
								JOINT L5MidPhalanx
								{
									OFFSET 0.04 0 0
									CHANNELS 1 Zrotation
									JOINT L5DistPhalanx
									{
										OFFSET 0.021 0 0
										CHANNELS 1 Zrotation
										End Site
										{
											OFFSET 0.022 -0 -0
										}
									}
								}
							}
						}
					}
				}
			}
			JOINT Right_Collar
			{
				OFFSET -0.02282 0.250342 0.017193
				CHANNELS 2 Yrotation Zrotation
				JOINT Right_Shoulder
				{
					OFFSET -0.15421 0 0
					CHANNELS 3 Xrotation Yrotation Zrotation
					JOINT Right_Forearm
					{
						OFFSET -0.265212 0 0
						CHANNELS 2 Yrotation Xrotation
						JOINT Right_Hand
						{
							OFFSET -0.27571 3e-006 0
							CHANNELS 2 Zrotation Yrotation
							JOINT R1ProxPhalanx
							{
								OFFSET -0.014142 0.001733 0.014142
								CHANNELS 3 Yrotation Zrotation Xrotation
								JOINT R1MidPhalanx
								{
									OFFSET -0.04 0 0
									CHANNELS 1 Zrotation
									JOINT R1DistPhalanx
									{
										OFFSET -0.035 0 0
										CHANNELS 1 Zrotation
										End Site
										{
											OFFSET -0.029 -0 -0
										}
									}
								}
							}
							JOINT R2ProxPhalanx
							{
								OFFSET -0.0821037 0.001578 0.0219996
								CHANNELS 2 Yrotation Zrotation
								JOINT R2MidPhalanx
								{
									OFFSET -0.04 0 0
									CHANNELS 1 Zrotation
									JOINT R2DistPhalanx
									{
										OFFSET -0.028 0 0
										CHANNELS 1 Zrotation
										End Site
										{
											OFFSET -0.02 -0 -0
										}
									}
								}
							}
							JOINT R3ProxPhalanx
							{
								OFFSET -0.083 0 0
								CHANNELS 2 Yrotation Zrotation
								JOINT R3MidPhalanx
								{
									OFFSET -0.053 0 0
									CHANNELS 1 Zrotation
									JOINT R3DistPhalanx
									{
										OFFSET -0.03 0 0
										CHANNELS 1 Zrotation
										End Site
										{
											OFFSET -0.023 -0 -0
										}
									}
								}
							}
							JOINT R4ProxPhalanx
							{
								OFFSET -0.077274 -0.000761 -0.0207055
								CHANNELS 2 Yrotation Zrotation
								JOINT R4MidPhalanx
								{
									OFFSET -0.05 0 0
									CHANNELS 1 Zrotation
									JOINT R4DistPhalanx
									{
										OFFSET -0.03 0 0
										CHANNELS 1 Zrotation
										End Site
										{
											OFFSET -0.023 -0 -0
										}
									}
								}
							}
							JOINT R5ProxPhalanx
							{
								OFFSET -0.0675499 -0.001644 -0.039
								CHANNELS 2 Yrotation Zrotation
								JOINT R5MidPhalanx
								{
									OFFSET -0.04 0 0
									CHANNELS 1 Zrotation
									JOINT R5DistPhalanx
									{
										OFFSET -0.021 0 0
										CHANNELS 1 Zrotation
										End Site
										{
											OFFSET -0.022 -0 -0
										}
									}
								}
							}
						}
					}
				}
			}
		}
	}
	JOINT Left_Thigh
	{
		OFFSET 0.1118 -0.1612 -0.0442
		CHANNELS 3 Xrotation Zrotation Yrotation
		JOINT Left_Shin
		{
			OFFSET 0 -0.477856 0
			CHANNELS 1 Xrotation
			JOINT Left_Foot
			{
				OFFSET 0 -0.431952 0
				CHANNELS 2 Xrotation Zrotation
				JOINT Left_Toe
				{
					OFFSET 0 -0.0442 0.119
					CHANNELS 1 Xrotation
					End Site
					{
						OFFSET -0 -0 0.07
					}
				}
			}
		}
	}
	JOINT Right_Thigh
	{
		OFFSET -0.1118 -0.1612 -0.0442
		CHANNELS 3 Xrotation Zrotation Yrotation
		JOINT Right_Shin
		{
			OFFSET 0 -0.477856 0
			CHANNELS 1 Xrotation
			JOINT Right_Foot
			{
				OFFSET 0 -0.431952 0
				CHANNELS 2 Xrotation Zrotation
				JOINT Right_Toe
				{
					OFFSET 0 -0.0442 0.119
					CHANNELS 1 Xrotation
					End Site
					{
						OFFSET -0 -0 0.07
					}
				}
			}
		}
	}
}
MOTION
Frames: 8
Frame Time: 0.009975
-0.102571 -0.06013 0.0518789 -7.42335e-013 7.19321e-008 -5.10908e-006 0 -0 0 0 -0 0 0 -0 0 -0.713078 0.294353 -7.87745e-012 4.99407 -20.2184 -7.2771 -19.8689 -30.3093 -95.9594 -1.07326 9.6171 7.94973 -40.5316 -43.5896 103.283 -7.10789 -4.81548 2.69559 -7.40342 -2.98992 -6.72733 5.89092 0.508958 -5.4973 -5.3917 11.1257 1.19015 -12.1062 -9.35422 19.4153 3.33565 -41.2194 -1.46018 -0.447104 7.28955 27.1885 8.34766 56.6376 93.5491 0.374254 -1.85963 -1.52878 43.5198 31.6989 79.5467 19.9631 19.8164 8.98323 14.194 20.069 14.6639 -2.92194 15.0546 22.733 20.7 -12.0232 20.4642 23.8222 17.0246 -15.4202 17.1211 36.8339 11.2314 0.799722 -0.581224 -0.00811294 0.0240216 -0.823702 0.581286 0 0.811126 -0.581222 -0.00822863 2.27241e-006 -0.811087 0.581286 0 
-0.102659 -0.0601311 0.0520194 2.81243e-013 7.27382e-008 -5.10907e-006 0 -0 0 0 -0 0 0 -0 0 -0.713092 0.294612 -7.59869e-012 4.99407 -20.2184 -7.2771 -19.8689 -30.3093 -95.9594 -1.07326 9.6171 7.94973 -40.5316 -43.5896 103.283 -7.10789 -4.81548 2.69559 -7.40342 -2.98992 -6.72733 5.89092 0.508958 -5.4973 -5.3917 11.1257 1.19015 -12.1062 -9.35422 19.4153 3.33565 -41.2194 -1.46018 -0.408667 6.99682 27.7104 8.59715 57.5378 92.8543 0.34208 -1.69976 -1.39736 43.1607 31.4614 79.1703 20.367 20.3717 9.24928 14.4528 20.6453 14.9838 -2.73393 15.5295 23.3689 21.1777 -11.805 21.1231 24.3616 17.4582 -14.9319 17.7398 36.7257 12.4403 0.808572 -0.575673 -0.00812441 0.0240216 -0.832553 0.575736 0 0.819977 -0.575672 -0.008239 8.62311e-007 -0.819937 0.575736 0 
-0.102747 -0.0601322 0.0521546 -8.49331e-014 7.3514e-008 -5.10905e-006 0 -0 0 0 -0 0 0 -0 0 -0.713105 0.294871 -7.29905e-012 4.99407 -20.2184 -7.2771 -19.8689 -30.3093 -95.9594 -1.07326 9.6171 7.94973 -40.5316 -43.5896 103.283 -7.10789 -4.81548 2.69559 -7.40342 -2.98992 -6.72733 5.89092 0.508958 -5.4973 -5.3917 11.1257 1.19015 -12.1062 -9.35422 19.4153 3.33565 -41.2194 -1.46018 -0.370919 6.70941 28.1815 8.84714 58.4287 92.1267 0.310482 -1.54275 -1.26828 42.8016 31.2239 78.794 20.771 20.9271 9.51533 14.7117 21.2215 15.3037 -2.54592 16.0045 24.0047 21.6555 -11.5868 21.7821 24.901 17.8918 -14.4436 18.3584 36.6175 13.6492 0.817082 -0.570132 -0.00813091 0.0240216 -0.841063 0.570195 0 0.828487 -0.570131 -0.0082444 0 -0.828446 0.570195 0 
-0.102834 -0.0601332 0.0522842 -1.41703e-013 7.42591e-008 -5.10904e-006 0 -0 0 0 -0 0 0 -0 0 -0.713117 0.29513 -6.9783e-012 4.99407 -20.2184 -7.2771 -19.8689 -30.3093 -95.9594 -1.07326 9.6171 7.94973 -40.5316 -43.5896 103.283 -7.10789 -4.81548 2.69559 -7.40342 -2.98992 -6.72733 5.89092 0.508958 -5.4973 -5.3917 11.1257 1.19015 -12.1062 -9.35422 19.4153 3.33565 -41.2194 -1.46018 -0.333911 6.42773 28.6029 9.09542 59.3085 91.3699 0.279504 -1.38883 -1.14174 42.4425 30.9864 78.4177 21.1749 21.4824 9.78138 14.9705 21.7978 15.6236 -2.35791 16.4794 24.6405 22.1332 -11.3686 22.441 25.4404 18.3254 -13.9552 18.977 36.5093 14.8581 0.825247 -0.564615 -0.00813271 0.0240216 -0.849228 0.564678 0 0.836652 -0.564613 -0.0082451 0 -0.836612 0.564678 0 
-0.102921 -0.0601341 0.0524083 3.81332e-013 7.49732e-008 -5.10902e-006 0 -0 0 0 -0 0 0 -0 0 -0.713129 0.295388 -6.63737e-012 4.99407 -20.2184 -7.2771 -19.8689 -30.3093 -95.9594 -1.07326 9.6171 7.94973 -40.5316 -43.5896 103.283 -7.10789 -4.81548 2.69559 -7.40342 -2.98992 -6.72733 5.89092 0.508958 -5.4973 -5.3917 11.1257 1.19015 -12.1062 -9.35422 19.4153 3.33565 -41.2194 -1.46018 -0.297708 6.15225 28.9763 9.33994 60.1751 90.588 0.2492 -1.23825 -1.01795 42.0834 30.7489 78.0414 21.5788 22.0378 10.0474 15.2293 22.3741 15.9436 -2.16989 16.9543 25.2763 22.6109 -11.1503 23.0999 25.9798 18.759 -13.4669 19.5956 36.4012 16.067 0.833062 -0.559137 -0.00813009 0.0240216 -0.857044 0.559201 0 0.844468 -0.559135 -0.00824139 0 -0.844427 0.559201 0 
-0.103008 -0.0601351 0.0525267 -6.38254e-013 7.56556e-008 -5.109e-006 0 -0 0 0 -0 0 0 -0 0 -0.713141 0.295644 -6.27551e-012 4.99407 -20.2184 -7.2771 -19.8689 -30.3093 -95.9594 -1.07326 9.6171 7.94973 -40.5316 -43.5896 103.283 -7.10789 -4.81548 2.69559 -7.40342 -2.98992 -6.72733 5.89092 0.508958 -5.4973 -5.3917 11.1257 1.19015 -12.1062 -9.35422 19.4153 3.33565 -41.2194 -1.46018 -0.262386 5.88354 29.3033 9.57875 61.0259 89.7856 0.219634 -1.09134 -0.897178 41.7243 30.5114 77.665 21.9827 22.5931 10.3135 15.4882 22.9503 16.2635 -1.98188 17.4293 25.9122 23.0886 -10.9321 23.7589 26.5192 19.1926 -12.9786 20.2143 36.293 17.2759 0.840521 -0.553716 -0.00812339 0.0240216 -0.864503 0.553781 0 0.851926 -0.553715 -0.00823361 1.1712e-006 -0.851888 0.553781 0 
-0.103092 -0.0601359 0.0526394 -9.06231e-014 7.63057e-008 -5.10899e-006 0 -0 0 0 -0 0 0 -0 0 -0.713152 0.295897 -5.89214e-012 4.99407 -20.2184 -7.2771 -19.8689 -30.3093 -95.9594 -1.07326 9.6171 7.94973 -40.5316 -43.5896 103.283 -7.10789 -4.81548 2.69559 -7.40342 -2.98992 -6.72733 5.89092 0.508958 -5.4973 -5.3917 11.1257 1.19015 -12.1062 -9.35422 19.4153 3.33565 -41.2194 -1.46018 -0.228039 5.62232 29.5858 9.80999 61.858 88.968 0.190883 -0.948479 -0.779736 41.3651 30.2739 77.2887 22.3866 23.1485 10.5795 15.747 23.5266 16.5834 -1.79387 17.9042 26.548 23.5664 -10.7139 24.4178 27.0586 19.6262 -12.4902 20.8329 36.1848 18.4848 0.847615 -0.548374 -0.00811293 0.0240216 -0.871598 0.548439 0 0.859021 -0.548372 -0.00822209 1.24968e-006 -0.858983 0.548439 0 
-0.103176 -0.0601367 0.0527461 5.17437e-013 7.69227e-008 -5.10898e-006 0 -0 0 0 -0 0 0 -0 0 -0.713162 0.296147 -5.48719e-012 4.99407 -20.2184 -7.2771 -19.8689 -30.3093 -95.9594 -1.07326 9.6171 7.94973 -40.5316 -43.5896 103.283 -7.10789 -4.81548 2.69559 -7.40342 -2.98992 -6.72733 5.89092 0.508958 -5.4973 -5.3917 11.1257 1.19015 -12.1062 -9.35422 19.4153 3.33565 -41.2194 -1.46018 -0.194783 5.36943 29.8261 10.0319 62.6682 88.1414 0.163046 -0.810156 -0.666022 41.006 30.0364 76.9124 22.7905 23.7038 10.8456 16.0059 24.1028 16.9033 -1.60586 18.3791 27.1838 24.0441 -10.4957 25.0768 27.598 20.0598 -12.0019 21.4515 36.0766 19.6937 0.854335 -0.543134 -0.00809913 0.0240216 -0.878318 0.5432 0 0.86574 -0.543133 -0.00820725 0 -0.865701 0.5432 0 
